<svg fill="#FFFFFF" xmlns="http://www.w3.org/2000/svg"  viewBox="0 0 64 64" width="48px" height="48px"><path d="M57,17.114c-1.32,1.973-2.991,3.707-4.916,5.097c0.018,0.423,0.028,0.847,0.028,1.274c0,13.013-9.902,28.018-28.016,28.018	c-5.562,0-12.81-1.948-15.095-4.423c0.772,0.092,1.556,0.138,2.35,0.138c4.615,0,8.861-1.575,12.23-4.216	c-4.309-0.079-7.946-2.928-9.199-6.84c1.96,0.308,4.447-0.17,4.447-0.17s-7.7-1.322-7.899-9.779c2.226,1.291,4.46,1.231,4.46,1.231	s-4.441-2.734-4.379-8.195c0.037-3.221,1.331-4.953,1.331-4.953c8.414,10.361,20.298,10.29,20.298,10.29s-0.255-1.471-0.255-2.243	c0-5.437,4.408-9.847,9.847-9.847c2.832,0,5.391,1.196,7.187,3.111c2.245-0.443,4.353-1.263,6.255-2.391	c-0.859,3.44-4.329,5.448-4.329,5.448S54.314,18.335,57,17.114z"/></svg>