<svg fill="#FFFFFF" xmlns="http://www.w3.org/2000/svg"  viewBox="0 0 64 64" width="48px" height="48px"><path d="M40.227,12C51.145,12,52,12.854,52,23.773v16.453C52,51.145,51.145,52,40.227,52H23.773C12.855,52,12,51.145,12,40.227	V23.773C12,12.854,12.855,12,23.773,12H40.227z M25.029,43V26.728h-5.057V43H25.029z M22.501,24.401	c1.625,0,2.947-1.322,2.947-2.949c0-1.625-1.322-2.947-2.947-2.947c-1.629,0-2.949,1.32-2.949,2.947S20.87,24.401,22.501,24.401z M44,43v-8.925c0-4.382-0.946-7.752-6.067-7.752c-2.46,0-4.109,1.349-4.785,2.628H33.08v-2.223h-4.851V43h5.054v-8.05	c0-2.122,0.405-4.178,3.036-4.178c2.594,0,2.628,2.427,2.628,4.315V43H44z"/></svg>